<svg xmlns="http://www.w3.org/2000/svg" viewBox="0 0 1917.75 272"><defs><style>.cls-1{fill:#fff;}</style></defs><title>logo-background</title><g id="Layer_2" data-name="Layer 2"><g id="Layer_1-2" data-name="Layer 1"><path class="cls-1" d="M163.29,60.63l-59.13,59.12L45,178.87,10,214A34,34,0,0,0,10,262h0A34,34,0,0,0,58,262L93.12,227l59.13-59.13,59.12-59.12,35.08-35.08a34,34,0,0,0,0-48.09h0a34,34,0,0,0-48.08,0Z"/><path class="cls-1" d="M204,0H34A34,34,0,0,0,0,34H0A34,34,0,0,0,34,68H170a34,34,0,0,1,34,34V238a34,34,0,0,0,34,34h0a34,34,0,0,0,34-34V68h0V34A34,34,0,0,0,238,0Z"/><path class="cls-1" d="M408,21.73l2.53-2.53H465V66.82q0,7.61.19,13.58c.11,4,.18,8.46.18,13.41v99.6c0,4.7-.07,9-.18,12.85s-.19,8.27-.19,13.22v48.17H441.32q-15.57,0-24.45-9T408,233.79ZM566.64,19.2a72.84,72.84,0,0,1,1.72,12.22q.27,5.7.27,10.59a75.85,75.85,0,0,1-1.18,12.05,76.53,76.53,0,0,1-3.53,13.67H489.85q-4.53,0-12.85-.09t-17.12-.27q-8.78-.18-14.57-.37V19.2Zm-21.55,99.42a48.76,48.76,0,0,1,2.71,12.13,114.91,114.91,0,0,1,.73,11.59,105.93,105.93,0,0,1-.73,11.41,54.32,54.32,0,0,1-2.71,12.13H489.85q-4.53,0-12.85-.09t-17.12-.27q-8.78-.18-14.57-.36V119.34q5.79-.18,14.57-.36t17.12-.27q8.33-.09,12.85-.09Zm30.6,100.5q0,23.91-7.42,36.22t-30.61,12.31H445.31V220.93q11.76-.54,22.54-1.17t24-.64Z"/><path class="cls-1" d="M705.72,85.84a78.46,78.46,0,0,1,10.5-1.63q5.79-.54,11.59-.55a104.47,104.47,0,0,1,14.85,1,101.06,101.06,0,0,1,13.22,2.81l1.45,3.8-61,93.81-13.22,13L642.7,266.57a50.59,50.59,0,0,1-10.06,1.72q-5.7.45-11.86.45a135.69,135.69,0,0,1-16-.91,60.33,60.33,0,0,1-14-3.25L589.09,261l65.19-101.23,14.31-12.85ZM593.08,94.71a62.06,62.06,0,0,1,19.37-9.6,69.44,69.44,0,0,1,19-2.89q10.68,0,16.84,4.34t11.77,13.22L763.3,257.33a76.76,76.76,0,0,1-18.56,9.06,62.16,62.16,0,0,1-19.83,3.44q-10.5,0-17.38-4.26a39.58,39.58,0,0,1-12.32-12.77Z"/><path class="cls-1" d="M870.15,166.06A162.82,162.82,0,0,0,869,142.25q-1.37-9.69-5.89-14.76t-13.94-5.07q-12.67,0-17.48,12.86t-4.8,41.28q0,28.8,8,40t23.36,11.22a51.82,51.82,0,0,0,21-4.52A101.39,101.39,0,0,0,898,212.6q6.88,4,13.22,13.58t8.15,17.93q-12.14,12.67-31.24,20.28A104.92,104.92,0,0,1,849,272q-19.56,0-34.41-6.7a67,67,0,0,1-25-19.29,86.13,86.13,0,0,1-15.3-30.15,139.26,139.26,0,0,1-5.16-39.3q0-26.25,7-44.63t18.74-29.7A74.18,74.18,0,0,1,821,85.66a84.78,84.78,0,0,1,29.25-5.26,87.85,87.85,0,0,1,28.15,4.35,68.43,68.43,0,0,1,22.46,12.32,55.15,55.15,0,0,1,20,43.46q0,14.31-7.88,20.91t-19.83,6.61a124.2,124.2,0,0,1-12.49-.54C877.14,167.15,873.65,166.67,870.15,166.06Z"/><path class="cls-1" d="M974.27,194.49V155.56h68.27v-4.17a47.85,47.85,0,0,0-2.35-15.3,24.24,24.24,0,0,0-7.52-11.23q-5.16-4.24-13.85-4.25-13.23,0-18.56,10.86T994.91,165v17a115.31,115.31,0,0,0,2.18,23q2.17,10.68,9.23,17.2t21.55,6.52a93.42,93.42,0,0,0,24.18-3.17,179.53,179.53,0,0,0,22.73-7.7,44.87,44.87,0,0,1,10.14,15.58,79.76,79.76,0,0,1,5.07,17.93q-13.77,10-32.87,15.3a142.39,142.39,0,0,1-38.48,5.34q-23.91,0-39.48-7.88a63.41,63.41,0,0,1-24.63-21.37,87.71,87.71,0,0,1-12.77-30.42,162.64,162.64,0,0,1-3.71-34.86q0-27.34,8.24-49.35t26.17-34.86q17.92-12.86,46.72-12.86,23.91,0,40.75,10.15a68,68,0,0,1,25.8,27.43q9,17.29,9,39.21a144.21,144.21,0,0,1-1.18,20.19,138.09,138.09,0,0,1-3.71,17.11Z"/><path class="cls-1" d="M1154.09,194.49V155.56h68.27v-4.17a47.57,47.57,0,0,0-2.35-15.3,24.24,24.24,0,0,0-7.52-11.23q-5.16-4.24-13.85-4.25-13.22,0-18.56,10.86T1174.73,165v17a115.31,115.31,0,0,0,2.18,23,31.18,31.18,0,0,0,9.23,17.2q7.06,6.53,21.55,6.52a93.42,93.42,0,0,0,24.18-3.17,179,179,0,0,0,22.73-7.7,44.87,44.87,0,0,1,10.14,15.58,79.76,79.76,0,0,1,5.07,17.93q-13.77,10-32.87,15.3a142.33,142.33,0,0,1-38.48,5.34q-23.91,0-39.48-7.88a63.48,63.48,0,0,1-24.63-21.37,87.71,87.71,0,0,1-12.77-30.42,162.64,162.64,0,0,1-3.71-34.86q0-27.34,8.24-49.35t26.17-34.86Q1170.21,80.41,1199,80.4q23.91,0,40.75,10.15a67.91,67.91,0,0,1,25.8,27.43q9,17.29,9,39.21a144.21,144.21,0,0,1-1.18,20.19,138.09,138.09,0,0,1-3.71,17.11Z"/><path class="cls-1" d="M1298.42,178.38q0-31.15,9.87-52.61t26.35-32.51a64,64,0,0,1,36.4-11q18.82,0,33.41,7.69T1431,105l-9.06,40.21a161.64,161.64,0,0,0-21.37-14.76q-10.86-6.25-19.74-6.25a17.16,17.16,0,0,0-14,6.61q-5.34,6.61-7.88,18.83a145,145,0,0,0-2.53,29.07q0,16.66,2.8,27.25t7.79,15.58a15.41,15.41,0,0,0,11.14,5q5.79,0,13.49-3.54t15-13.4q7.34-9.86,12-28.88l12.68,32.05a61.05,61.05,0,0,1-11,28.25,75.68,75.68,0,0,1-24.17,22.28,63.28,63.28,0,0,1-32.69,8.69q-21.92,0-36.4-11.95t-21.55-33.14Q1298.42,205.72,1298.42,178.38Zm161.17,35.85A42.16,42.16,0,0,0,1462.4,230q2.8,7.06,7.33,10.5a55.61,55.61,0,0,1-6.79,16.12q-5.16,8.68-10.41,12.86-23.91-.37-36-16.12T1404.36,215V2.53L1406.89,0H1429q16.65,0,23.63,7.61t7,26.44Z"/><path class="cls-1" d="M1509,21.73l2.53-2.53h54.51V66.82q0,7.61.18,13.58t.18,13.41v99.6q0,7.05-.18,12.85t-.18,13.22v48.17h-23.72q-15.58,0-24.45-9T1509,233.79Zm158.64-2.53a73.88,73.88,0,0,1,1.72,12.22q.27,5.7.27,10.59a77,77,0,0,1-1.18,12.05A77.39,77.39,0,0,1,1665,67.73h-74.07q-4.53,0-12.85-.09t-17.12-.27c-5.86-.12-10.71-.24-14.58-.37V19.2Zm-21.55,99.42a48.76,48.76,0,0,1,2.71,12.13,114.91,114.91,0,0,1,.73,11.59,105.93,105.93,0,0,1-.73,11.41,54.32,54.32,0,0,1-2.71,12.13h-55.24q-4.53,0-12.85-.09t-17.12-.27c-5.86-.12-10.71-.24-14.58-.36V119.34c3.87-.12,8.72-.24,14.58-.36s11.56-.21,17.12-.27,9.83-.09,12.85-.09Zm30.6,100.5q0,23.91-7.42,36.22t-30.61,12.31h-92.36V220.93q11.78-.54,22.55-1.17t24-.64Z"/><path class="cls-1" d="M1917.75,142.7a271.68,271.68,0,0,1-3,40.84,119.69,119.69,0,0,1-11.69,36.67q-8.68,17-26.07,30.42a67.27,67.27,0,0,1-20.1,10.5,137.59,137.59,0,0,1-24,5.8,153.18,153.18,0,0,1-22.36,1.81q-15.58,0-30.52-.18t-29.88-.54q-14.94-.37-30.69-.73l-2.54-2.53V21l2.54-2.54q15.57-.54,30.51-.9t30-.46q15-.09,30.61-.09A156.42,156.42,0,0,1,1833,18.83a132.36,132.36,0,0,1,24.09,5.89A66.57,66.57,0,0,1,1877,35.31q17.21,13.41,25.89,30.43a121.17,121.17,0,0,1,11.77,36.49A258,258,0,0,1,1917.75,142.7Zm-59.58,0a232.24,232.24,0,0,0-1.72-28,99.34,99.34,0,0,0-6.61-26.08,46.1,46.1,0,0,0-14.3-19.19q-9.42-7.34-25-7.34c-6.16,0-12.08,0-17.75-.09s-11.71-.15-18.11-.27V223.83q9.6-.18,18.11-.18h17.75q15.57,0,25-7.34a45.86,45.86,0,0,0,14.3-19.37,101.82,101.82,0,0,0,6.61-26.26A232.12,232.12,0,0,0,1858.17,142.7Z"/></g></g></svg>